<svg width="800" height="600" viewBox="0 0 800 600" xmlns="http://www.w3.org/2000/svg">
  <!-- Background gradient -->
  <defs>
    <linearGradient id="bgGradient" x1="0%" y1="0%" x2="100%" y2="100%">
      <stop offset="0%" style="stop-color:#667eea;stop-opacity:1" />
      <stop offset="100%" style="stop-color:#764ba2;stop-opacity:1" />
    </linearGradient>
    <linearGradient id="panelGradient" x1="0%" y1="0%" x2="100%" y2="100%">
      <stop offset="0%" style="stop-color:#ffffff;stop-opacity:0.95" />
      <stop offset="100%" style="stop-color:#f8f9fa;stop-opacity:0.95" />
    </linearGradient>
    <filter id="shadow" x="-20%" y="-20%" width="140%" height="140%">
      <feDropShadow dx="0" dy="4" stdDeviation="8" flood-color="rgba(0,0,0,0.1)"/>
    </filter>
  </defs>

  <!-- Background -->
  <rect width="800" height="600" fill="url(#bgGradient)"/>

  <!-- Header -->
  <rect x="0" y="0" width="800" height="60" fill="rgba(255,255,255,0.1)"/>
  <text x="400" y="35" text-anchor="middle" font-family="Arial, sans-serif" font-size="20" font-weight="bold" fill="white">
    🔗 Listes Chaînées - Visualiseur Interactif
  </text>

  <!-- Control Panel -->
  <rect x="20" y="80" width="760" height="100" rx="10" fill="url(#panelGradient)" filter="url(#shadow)"/>
  <text x="50" y="105" font-family="Arial, sans-serif" font-size="16" font-weight="bold" fill="#2c3e50">Opérations :</text>

  <!-- Action buttons -->
  <rect x="50" y="115" width="80" height="35" rx="5" fill="#28a745"/>
  <text x="90" y="137" text-anchor="middle" font-family="Arial, sans-serif" font-size="12" font-weight="bold" fill="white">➕ Ajouter</text>

  <rect x="150" y="115" width="80" height="35" rx="5" fill="#dc3545"/>
  <text x="190" y="137" text-anchor="middle" font-family="Arial, sans-serif" font-size="12" font-weight="bold" fill="white">➖ Supprimer</text>

  <rect x="250" y="115" width="80" height="35" rx="5" fill="#ffc107"/>
  <text x="290" y="137" text-anchor="middle" font-family="Arial, sans-serif" font-size="12" font-weight="bold" fill="white">🔍 Chercher</text>

  <rect x="350" y="115" width="80" height="35" rx="5" fill="#17a2b8"/>
  <text x="390" y="137" text-anchor="middle" font-family="Arial, sans-serif" font-size="12" font-weight="bold" fill="white">🔄 Inverser</text>

  <!-- Position input -->
  <text x="450" y="137" font-family="Arial, sans-serif" font-size="12" fill="#495057">Position:</text>
  <rect x="500" y="125" width="60" height="25" rx="3" fill="white" stroke="#dee2e6"/>
  <text x="530" y="142" text-anchor="middle" font-family="Arial, sans-serif" font-size="12" fill="#495057">2</text>

  <!-- Value input -->
  <text x="580" y="137" font-family="Arial, sans-serif" font-size="12" fill="#495057">Valeur:</text>
  <rect x="620" y="125" width="80" height="25" rx="3" fill="white" stroke="#dee2e6"/>
  <text x="660" y="142" text-anchor="middle" font-family="Arial, sans-serif" font-size="12" fill="#495057">42</text>

  <!-- Visualization Canvas -->
  <rect x="20" y="200" width="760" height="350" rx="10" fill="white" stroke="#dee2e6" stroke-width="2"/>
  <text x="50" y="230" font-family="Arial, sans-serif" font-size="14" font-weight="bold" fill="#2c3e50">Structure de la Liste :</text>

  <!-- Linked List Nodes -->
  <g id="linked-list">
    <!-- Node 1 -->
    <rect x="100" y="280" width="80" height="60" rx="8" fill="#3498db" stroke="#2980b9" stroke-width="2"/>
    <text x="140" y="305" text-anchor="middle" font-family="Arial, sans-serif" font-size="16" font-weight="bold" fill="white">15</text>
    <text x="140" y="325" text-anchor="middle" font-family="Arial, sans-serif" font-size="10" fill="white">Index: 0</text>

    <!-- Arrow to next -->
    <polygon points="185,310 205,305 200,315 205,305 185,300" fill="#34495e"/>
    <line x1="180" y1="310" x2="210" y2="310" stroke="#34495e" stroke-width="2" marker-end="url(#arrowhead)"/>

    <!-- Node 2 (highlighted) -->
    <rect x="220" y="280" width="80" height="60" rx="8" fill="#e74c3c" stroke="#c0392b" stroke-width="3"/>
    <text x="260" y="305" text-anchor="middle" font-family="Arial, sans-serif" font-size="16" font-weight="bold" fill="white">42</text>
    <text x="260" y="325" text-anchor="middle" font-family="Arial, sans-serif" font-size="10" fill="white">Index: 1</text>

    <!-- Arrow to next -->
    <polygon points="305,310 325,305 320,315 325,305 305,300" fill="#34495e"/>
    <line x1="300" y1="310" x2="330" y2="310" stroke="#34495e" stroke-width="2" marker-end="url(#arrowhead)"/>

    <!-- Node 3 -->
    <rect x="340" y="280" width="80" height="60" rx="8" fill="#27ae60" stroke="#229954" stroke-width="2"/>
    <text x="380" y="305" text-anchor="middle" font-family="Arial, sans-serif" font-size="16" font-weight="bold" fill="white">73</text>
    <text x="380" y="325" text-anchor="middle" font-family="Arial, sans-serif" font-size="10" fill="white">Index: 2</text>

    <!-- Arrow to next -->
    <polygon points="425,310 445,305 440,315 445,305 425,300" fill="#34495e"/>
    <line x1="420" y1="310" x2="450" y2="310" stroke="#34495e" stroke-width="2" marker-end="url(#arrowhead)"/>

    <!-- Node 4 -->
    <rect x="460" y="280" width="80" height="60" rx="8" fill="#f39c12" stroke="#e67e22" stroke-width="2"/>
    <text x="500" y="305" text-anchor="middle" font-family="Arial, sans-serif" font-size="16" font-weight="bold" fill="white">89</text>
    <text x="500" y="325" text-anchor="middle" font-family="Arial, sans-serif" font-size="10" fill="white">Index: 3</text>

    <!-- Arrow to null -->
    <polygon points="545,310 565,305 560,315 565,305 545,300" fill="#34495e"/>
    <line x1="540" y1="310" x2="570" y2="310" stroke="#34495e" stroke-width="2" marker-end="url(#arrowhead)"/>
    <text x="585" y="315" font-family="Arial, sans-serif" font-size="12" fill="#95a5a6">null</text>
  </g>

  <!-- Information Panel -->
  <rect x="50" y="360" width="300" height="160" rx="5" fill="rgba(255,255,255,0.9)" stroke="#dee2e6"/>
  <text x="60" y="380" font-family="Arial, sans-serif" font-size="12" font-weight="bold" fill="#2c3e50">Informations :</text>
  <text x="60" y="400" font-family="Arial, sans-serif" font-size="11" fill="#495057">• Taille de la liste: 4 éléments</text>
  <text x="60" y="415" font-family="Arial, sans-serif" font-size="11" fill="#495057">• Type: Liste simplement chaînée</text>
  <text x="60" y="430" font-family="Arial, sans-serif" font-size="11" fill="#495057">• Complexité d'accès: O(n)</text>
  <text x="60" y="445" font-family="Arial, sans-serif" font-size="11" fill="#495057">• Complexité d'insertion: O(1) en tête</text>
  <text x="60" y="460" font-family="Arial, sans-serif" font-size="11" fill="#495057">• Mémoire utilisée: 4 nœuds</text>

  <!-- Operations History -->
  <rect x="380" y="360" width="380" height="160" rx="5" fill="rgba(255,255,255,0.9)" stroke="#dee2e6"/>
  <text x="390" y="380" font-family="Arial, sans-serif" font-size="12" font-weight="bold" fill="#2c3e50">Historique des opérations :</text>
  <text x="390" y="400" font-family="Arial, sans-serif" font-size="10" fill="#28a745">✓ Création liste vide</text>
  <text x="390" y="415" font-family="Arial, sans-serif" font-size="10" fill="#28a745">✓ Insertion 15 à la position 0</text>
  <text x="390" y="430" font-family="Arial, sans-serif" font-size="10" fill="#28a745">✓ Insertion 73 à la position 2</text>
  <text x="390" y="445" font-family="Arial, sans-serif" font-size="10" fill="#28a745">✓ Insertion 89 à la position 3</text>
  <text x="390" y="460" font-family="Arial, sans-serif" font-size="10" fill="#dc3545">➤ Suppression à la position 1 (valeur 42)</text>
  <text x="390" y="475" font-family="Arial, sans-serif" font-size="10" fill="#ffc107">➤ Recherche valeur 73</text>

  <!-- Code preview -->
  <rect x="20" y="570" width="760" height="30" fill="#2c3e50"/>
  <text x="50" y="590" font-family="Arial, sans-serif" font-size="12" fill="white">Code JavaScript: class Node { constructor(value) { this.value = value; this.next = null; } }</text>
</svg>
